<?xml version="1.0" standalone="no"?>
<!DOCTYPE svg PUBLIC "-//W3C//DTD SVG 1.1//EN" "http://www.w3.org/Graphics/SVG/1.1/DTD/svg11.dtd" >
<svg xmlns="http://www.w3.org/2000/svg">
<metadata>
This is a custom SVG webfont generated by Font Squirrel.
Copyright   : Copyright 19901995 as an unpublished work by Bitstream Inc All rights reserved PL modification c 1995 Kuba Tatarkiewicz
</metadata>
<defs>
<font id="GeoSlab703LtPLRegular" horiz-adv-x="1130" >
<font-face units-per-em="2048" ascent="1589" descent="-459" />
<missing-glyph horiz-adv-x="565" />
<glyph unicode=" "  horiz-adv-x="565" />
<glyph unicode="&#x09;" horiz-adv-x="565" />
<glyph unicode="&#xa0;" horiz-adv-x="565" />
<glyph unicode="!" horiz-adv-x="565" d="M166 88q0 49 33.5 83t83.5 34q51 0 83.5 -34t32.5 -83t-33.5 -82t-83 -33t-83 33t-33.5 82zM211 1589h139l-18 -1243h-99z" />
<glyph unicode="&#x22;" horiz-adv-x="593" d="M109 948v596h92v-596h-92zM393 948v596h92v-596h-92z" />
<glyph unicode="#" horiz-adv-x="1697" d="M139 532l33 97h363l108 305h-389l31 96h393l188 537h121l-188 -537h291l190 537h119l-187 -537h347l-33 -96h-350l-107 -305h375l-33 -97h-379l-186 -532h-123l190 532h-290l-193 -532h-119l189 532h-361zM657 629h289l109 305h-291z" />
<glyph unicode="$" d="M76 0v528h92q94 -397 350 -430v652q-408 86 -407 393q0 162 110.5 264t296.5 104v109h88v-111q190 -43 291 -192l-4 190h96v-409h-86q-72 246 -297 307v-559q463 -100 463 -449q0 -168 -129 -285.5t-334 -119.5v-185h-88v185q-219 37 -350 266l2 -258h-94zM223 1147 q0 -223 295 -283v551q-135 -2 -215 -76.5t-80 -191.5zM606 92q152 2 251 91t99 214q0 252 -350 332v-637z" />
<glyph unicode="%" horiz-adv-x="1800" d="M78 1189.5q0 151.5 102.5 254t253.5 102.5q150 0 254.5 -102.5t104.5 -254t-104.5 -255t-254.5 -103.5q-152 0 -254 103.5t-102 255zM186 1189.5q0 -106.5 72 -179t176.5 -72.5t177 72.5t72.5 179.5q0 109 -71.5 180.5t-178.5 71.5q-104 0 -176 -73t-72 -179.5zM334 -31 l1030 1608h109l-1035 -1608h-104zM1008 358q0 152 103 254.5t255 102.5q150 0 254 -102.5t104 -254t-104 -255t-254 -103.5q-152 0 -255 102t-103 256zM1116 358.5q0 -106.5 73 -179.5t177 -73t177 73t73 179q0 109 -71.5 179.5t-178.5 70.5q-104 0 -177 -71.5t-73 -178z " />
<glyph unicode="&#x26;" horiz-adv-x="1439" d="M90 336q0 125 84 242.5t262 265.5q-203 231 -203 448q0 154 86.5 241t233.5 87t233 -86t86 -236q0 -117 -64.5 -224t-203.5 -232l361 -398q145 184 200 408h-133v109h400v-109h-146q-66 -268 -244 -504l222 -239h168v-109h-230l-235 256q-250 -287 -500 -287 q-164 0 -270.5 104.5t-106.5 262.5zM221 346q0 -111 73 -185.5t179 -74.5q209 0 414 254l-373 426q-156 -141 -224.5 -234.5t-68.5 -185.5zM360 1290q0 -184 170 -377q217 217 218 392q0 96 -49.5 151t-133.5 55q-100 0 -152.5 -56t-52.5 -165z" />
<glyph unicode="'" horiz-adv-x="307" d="M109 948v596h92v-596h-92z" />
<glyph unicode="(" horiz-adv-x="679" d="M152 690q0 500 337 930l91 -72q-305 -418 -306 -858q0 -436 306 -858l-91 -68q-337 430 -337 926z" />
<glyph unicode=")" horiz-adv-x="679" d="M96 -168q309 422 310 858q0 438 -310 858l94 72q338 -430 338 -930q0 -496 -338 -926z" />
<glyph unicode="*" horiz-adv-x="1103" d="M233 1374l39 96l238 -102l-4 252h100l-6 -252l231 102l35 -96l-245 -88l172 -182l-80 -70l-162 195l-160 -195l-78 70l172 182z" />
<glyph unicode="+" horiz-adv-x="1839" d="M274 614v86h603v613h86v-613h602v-86h-602v-614h-86v614h-603z" />
<glyph unicode="," horiz-adv-x="565" d="M84 -233l143 466h123l-143 -466h-123z" />
<glyph unicode="-" horiz-adv-x="684" d="M74 453v110h540v-110h-540z" />
<glyph unicode="." horiz-adv-x="565" d="M166 88q0 49 33.5 83t83.5 34q51 0 83.5 -34t32.5 -83t-33.5 -82t-83 -33t-83 33t-33.5 82z" />
<glyph unicode="/" horiz-adv-x="622" d="M33 -205l567 1825h100l-567 -1825h-100z" />
<glyph unicode="0" d="M113 578v393q0 135 12 222t53 163q125 221 387 221t385 -221q43 -74 54.5 -160t11.5 -225v-393q0 -92 -3 -144.5t-17.5 -120t-45.5 -118.5q-125 -225 -385 -226q-258 0 -387 226q-41 76 -53 162t-12 221zM236 559q0 -227 47 -313q92 -168 282.5 -168t282.5 168 q45 82 45 313v430q0 227 -45 314q-92 170 -282.5 170t-282.5 -170q-47 -86 -47 -314v-430z" />
<glyph unicode="1" d="M334 0v102h194v1344h-182v100h305v-1444h187v-102h-504z" />
<glyph unicode="2" d="M98 0v104l188 222l169 199l138 166q77 93 118 153.5t80.5 127t56 120t16.5 102.5q0 127 -83 204t-220 77q-162 0 -250 -111t-88 -324v-22h-112q-2 18 -2 57q0 233 122.5 367.5t333.5 134.5q188 0 306 -104.5t118 -268.5q0 -86 -42 -184t-134 -224t-200 -255l-275 -322 l-102 -117h667v287h119v-389h-924z" />
<glyph unicode="3" d="M109 428v16h112q4 -168 97.5 -267t240.5 -99q141 0 237.5 95t96.5 237q0 154 -101.5 248t-269.5 94q-4 0 -20.5 -1t-24.5 -1v102q193 2 299.5 87t106.5 230q0 135 -85 218t-229 83q-147 0 -230 -91t-89 -263h-109v4q0 211 120 334t319 123q188 0 307 -115.5t119 -292.5 q0 -133 -80 -231t-219 -131q141 -27 226 -133.5t85 -255.5q0 -188 -130 -318.5t-319 -130.5q-211 0 -335.5 124t-124.5 335z" />
<glyph unicode="4" d="M68 424v100l653 1022h98v-1024h193v-98h-193v-322h193v-102h-506v102h192v322h-630zM195 522h503v563q0 104 29 289z" />
<glyph unicode="5" d="M115 418v10h112q4 -166 91.5 -260t226.5 -94q156 0 250 110.5t94 298.5q0 201 -101.5 304.5t-295.5 103.5q-147 0 -283 -49v704h649v-100h-534v-475q98 25 192 24q233 0 365.5 -136t132.5 -376q0 -231 -130 -372.5t-343 -141.5q-190 0 -308 123t-118 326z" />
<glyph unicode="6" d="M119 674v237q0 328 120.5 496t356.5 168q162 0 258 -98.5t109 -259.5h-109q-39 252 -272 251q-184 0 -265 -158.5t-81 -494.5v-59q117 213 366 213q188 0 311 -140.5t123 -363.5q0 -221 -127 -358.5t-329 -137.5q-141 0 -246 65.5t-158 188.5q-57 132 -57 451zM250 467 q0 -182 88 -285.5t241.5 -103.5t243.5 102.5t90 284.5t-91 286.5t-242 104.5q-154 0 -242 -102.5t-88 -286.5z" />
<glyph unicode="7" d="M176 1190v356h873l4 -100l-635 -1446h-137l639 1446h-623v-256h-121z" />
<glyph unicode="8" d="M111 410q0 143 77.5 250.5t212.5 146.5q-127 47 -195.5 145.5t-68.5 231.5q0 170 121 283.5t307.5 113.5t307 -112.5t120.5 -284.5q0 -133 -68.5 -231.5t-195.5 -145.5q135 -39 213 -146.5t78 -250.5q0 -190 -127 -315.5t-327.5 -125.5t-327.5 125.5t-127 315.5zM229 410 q0 -143 96.5 -239.5t240 -96.5t239.5 96t96 240q0 145 -96 242.5t-239.5 97.5t-240 -97.5t-96.5 -242.5zM254 1167q0 -131 89 -220t222 -89t222.5 89t89.5 220t-89.5 220.5t-222.5 89.5t-222 -89.5t-89 -220.5z" />
<glyph unicode="9" d="M90 1079q0 221 127 358.5t330 137.5q295 0 403 -254q57 -129 58 -449v-239q0 -664 -476 -664q-166 0 -263 93.5t-111 267.5h106q39 -252 268 -252q197 0 281 148.5t84 473.5q0 14 -2 44t-2 47q-115 -215 -369 -216q-186 0 -310 140.5t-124 363.5zM217 1079.5 q0 -182.5 89 -287t241 -104.5q154 0 243 102.5t89 287t-90.5 287.5t-241.5 103q-154 0 -242 -103t-88 -285.5z" />
<glyph unicode=":" horiz-adv-x="565" d="M166 88q0 49 33.5 83t83.5 34q51 0 83.5 -34t32.5 -83t-33.5 -82t-83 -33t-83 33t-33.5 82zM166 880.5q0 49.5 33.5 82t83.5 32.5q51 0 83.5 -32.5t32.5 -82t-33.5 -82t-83 -32.5t-83 32.5t-33.5 82z" />
<glyph unicode=";" horiz-adv-x="565" d="M84 -233l143 466h123l-143 -466h-123zM166 880.5q0 49.5 33.5 82t83.5 32.5q51 0 83.5 -32.5t32.5 -82t-33.5 -82t-83 -32.5t-83 32.5t-33.5 82z" />
<glyph unicode="&#x3c;" horiz-adv-x="1839" d="M285 625v65l1269 522v-98l-1126 -457l1126 -456v-95z" />
<glyph unicode="=" horiz-adv-x="1839" d="M274 420v86h1291v-86h-1291zM274 809v88h1291v-88h-1291z" />
<glyph unicode="&#x3e;" horiz-adv-x="1839" d="M285 106v95l1126 456l-1126 457v98l1269 -522v-65z" />
<glyph unicode="?" horiz-adv-x="1122" d="M131 1204q4 186 120 301t292 115q190 0 304 -118t114 -318q0 -178 -109 -298t-291 -136v-404h-119v508q6 0 18.5 -1t18.5 -1q172 0 268.5 94t96.5 260q0 133 -87 220t-218 87q-127 0 -207 -82.5t-84 -226.5h-117zM387 88q0 49 33 83t84 34t84 -34t33 -83t-34 -82t-83 -33 q-51 0 -84 33t-33 82z" />
<glyph unicode="@" horiz-adv-x="2207" d="M131 563q0 354 213 615q313 385 856 385q358 0 596 -181q281 -215 281 -544q0 -375 -262 -582q-150 -119 -330 -119q-207 0 -207 156q0 10 4 43q-51 -96 -133 -147.5t-180 -51.5q-166 0 -252 89t-86 261q0 248 145.5 418t351.5 170q211 0 275 -184l67 139h86l-147 -596 q-23 -90 -23 -117q0 -98 125 -98q106 0 220 82q109 78 174 220.5t65 305.5q0 293 -214 473.5t-566 180.5q-365 0 -615 -207q-332 -276 -331 -725q0 -350 236.5 -561t637.5 -211q362 0 672 207l31 -47q-315 -238 -699 -238q-403 0 -667 199q-324 245 -324 665zM743 481 q0 -125 61.5 -194.5t172.5 -69.5q121 0 212 78t124 209l69 272q-51 219 -252 219q-164 0 -275.5 -148.5t-111.5 -365.5z" />
<glyph unicode="A" horiz-adv-x="1460" d="M-39 0v109h154l503 1372h-161v108h547v-108h-160l502 -1372h155v-109h-467v109h183l-142 387h-688l-141 -387h180v-109h-465zM428 602h604l-301 844z" />
<glyph unicode="B" horiz-adv-x="1327" d="M66 0v109h184v1372h-184v108h530q565 0 565 -391q0 -252 -274 -344q176 -41 269 -147.5t93 -260.5q0 -203 -134 -324.5t-357 -121.5h-692zM377 109h305q225 0 330.5 80.5t105.5 259.5q0 174 -107.5 256.5t-328.5 82.5h-305v-679zM377 893h209q236 0 340 64.5t104 230.5 q0 156 -106.5 224.5t-337.5 68.5h-209v-588z" />
<glyph unicode="C" horiz-adv-x="1640" d="M82 795q0 377 270 624q219 201 539 201q383 0 565 -285v254h111v-495h-99q-55 199 -206.5 308t-370.5 109q-131 0 -253 -48t-212 -134q-215 -209 -215 -534q0 -317 197.5 -517t506.5 -200q213 0 360.5 112.5t197.5 311.5h112q-66 -256 -246 -394.5t-448 -138.5 q-317 0 -539 203q-270 248 -270 623z" />
<glyph unicode="D" horiz-adv-x="1570" d="M63 0v109h185v1372h-185v108h496q369 0 518 -84q412 -233 412 -710q0 -225 -108.5 -409.5t-307.5 -295.5q-162 -90 -514 -90h-496zM375 109h184q369 0 584 190t215 502q0 397 -346 598q-143 82 -453 82h-184v-1372z" />
<glyph unicode="E" horiz-adv-x="1302" d="M63 0v109h185v1372h-185v108h1164v-391h-127v283h-725v-584h557v-109h-557v-679h725v276h127v-385h-1164z" />
<glyph unicode="F" horiz-adv-x="1230" d="M63 0v109h185v1372h-185v108h1180v-391h-127v283h-741v-584h557v-109h-557v-679h205v-109h-517z" />
<glyph unicode="G" horiz-adv-x="1816" d="M82 795q0 377 270 624q219 201 539 201q188 0 333.5 -73.5t231.5 -211.5v254h111v-495h-99q-53 197 -207.5 307t-369.5 110q-276 0 -465 -182q-215 -209 -215 -534q0 -319 198.5 -518t516.5 -199q246 0 398.5 138t162.5 378h-490v106h760v-106h-164v-594h-118v256 q-174 -287 -566 -287q-250 0 -428 109q-188 113 -293.5 300.5t-105.5 416.5z" />
<glyph unicode="H" horiz-adv-x="1593" d="M63 0v109h185v1372h-185v108h496v-108h-184v-598h844v598h-185v108h496v-108h-184v-1372h184v-109h-496v109h185v667h-844v-667h184v-109h-496z" />
<glyph unicode="I" horiz-adv-x="622" d="M45 0v109h203v1372h-203v108h535v-108h-205v-1372h205v-109h-535z" />
<glyph unicode="J" horiz-adv-x="606" d="M-4 -147h39q135 0 174 52t39 204v1372h-203v108h520v-108h-190v-1372q0 -193 -69.5 -282t-229.5 -89h-80v115z" />
<glyph unicode="K" horiz-adv-x="1404" d="M63 0v109h185v1372h-185v108h496v-108h-184v-664l708 664h-170v108h486v-108h-158l-731 -678l739 -694h150v-109h-510v109h170l-684 651v-651h184v-109h-496z" />
<glyph unicode="L" horiz-adv-x="1167" d="M63 0v109h185v1372h-185v108h496v-108h-184v-1372h649v229h129v-338h-1090z" />
<glyph unicode="M" horiz-adv-x="1931" d="M55 0v109h203v1372h-203v108h338l572 -1349l573 1349h338v-108h-203v-1372h203v-109h-537v109h205v1237l-545 -1285h-67l-545 1285v-1237h205v-109h-537z" />
<glyph unicode="N" horiz-adv-x="1585" d="M63 0v109h185v1372h-185v108h379l764 -1380v1272h-166v108h478v-108h-183v-1512h-129l-831 1481v-1341h170v-109h-482z" />
<glyph unicode="O" horiz-adv-x="1783" d="M82 795q0 377 270 624q219 201 538.5 201t539.5 -201q272 -250 272 -624.5t-272 -622.5q-221 -203 -539 -203t-539 203q-270 248 -270 623zM211 795q0 -324 215 -533q88 -86 211 -134t254 -48q279 0 467 182q213 209 213 533q0 328 -213 534q-188 182 -467 182 q-276 0 -465 -182q-215 -208 -215 -534z" />
<glyph unicode="P" horiz-adv-x="1280" d="M45 0v109h203v1372h-203v108h606q299 0 455 -124t156 -359q0 -483 -611 -483h-276v-514h205v-109h-535zM375 723h268q248 0 369 93t121 287.5t-120 286t-370 91.5h-268v-758z" />
<glyph unicode="Q" horiz-adv-x="1783" d="M82 795q0 377 270 624q219 201 538.5 201t539.5 -201q272 -250 272 -624q0 -281 -150.5 -492t-412.5 -297l57 -115h236v-108h-302l-98 199q-94 -12 -160 -13q-299 0 -520 203q-270 248 -270 623zM211 795q0 -199 80 -355.5t229 -251.5q168 -109 373 -108q57 0 90 4 l-88 178l96 47l96 -200q225 63 354.5 246.5t129.5 439.5q0 328 -213 534q-188 182 -467 182q-276 0 -465 -182q-215 -208 -215 -534z" />
<glyph unicode="R" horiz-adv-x="1445" d="M45 0v109h203v1372h-203v108h676q285 0 433.5 -105.5t148.5 -301.5q0 -147 -97.5 -245.5t-273.5 -123.5q172 -45 235.5 -133t63.5 -264v-307h184v-109h-311v379q0 221 -118 307t-417 86h-194v-663h205v-109h-535zM375 881h313q250 0 366.5 70.5t116.5 230.5 q0 158 -116.5 228.5t-366.5 70.5h-313v-600z" />
<glyph unicode="S" horiz-adv-x="1460" d="M207 -4v528h106q29 -209 168.5 -329.5t347.5 -120.5q168 0 272.5 88t104.5 229q0 117 -75.5 188.5t-241.5 114.5l-207 56q-233 63 -353 177.5t-120 272.5q0 178 136 297t345 119q143 0 261 -61.5t184 -172.5l-7 203h105v-424h-98q-43 166 -163 256t-292 90 q-150 0 -250 -82t-100 -204q0 -127 92 -211t283 -133l243 -64q379 -102 379 -412q0 -193 -141.5 -314.5t-376.5 -121.5q-154 0 -284 73t-218 208l6 -250h-106z" />
<glyph unicode="T" horiz-adv-x="1247" d="M37 1155v434h1169v-434h-108v326h-412v-1372h205v-109h-537v109h205v1372h-409v-326h-113z" />
<glyph unicode="U" horiz-adv-x="1554" d="M41 1481v108h498v-108h-187v-903q0 -143 18.5 -230.5t78.5 -148.5q109 -117 325 -117q221 0 332 117q59 61 76.5 147t17.5 232v903h-184v108h495v-108h-184v-961q0 -551 -551 -551t-551 551v961h-184z" />
<glyph unicode="V" horiz-adv-x="1343" d="M-10 1481v108h465v-108h-172l389 -1331l391 1331h-174v108h467v-108h-172l-453 -1508h-117l-454 1508h-170z" />
<glyph unicode="W" horiz-adv-x="2039" d="M-8 1481v108h450v-108h-186l383 -1338l311 1338h-184v108h508v-108h-187l312 -1338l385 1338h-187v108h451v-108h-135l-453 -1508h-125l-315 1352l-315 -1352h-130l-450 1508h-133z" />
<glyph unicode="X" horiz-adv-x="1421" d="M-8 0v109h184l469 682l-459 690h-174v108h510v-108h-192l387 -592l393 592h-215v108h514v-108h-174l-459 -678l469 -694h182v-109h-499v109h174l-395 593l-400 -593h185v-109h-500z" />
<glyph unicode="Y" horiz-adv-x="1347" d="M-8 1481v108h495v-108h-208l393 -682l389 682h-201v108h498v-108h-158l-463 -793v-579h205v-109h-536v109h202v593l-458 779h-158z" />
<glyph unicode="Z" horiz-adv-x="1429" d="M178 0v109l922 1372h-803v-310h-119v418h1063v-108l-922 -1372h801v311h121v-420h-1063z" />
<glyph unicode="[" horiz-adv-x="798" d="M276 -190v1779h426v-106h-305v-1569h305v-104h-426z" />
<glyph unicode="\" horiz-adv-x="622" d="M-23 1620h101l567 -1825h-98z" />
<glyph unicode="]" horiz-adv-x="798" d="M96 -86h305v1569h-305v106h426v-1779h-426v104z" />
<glyph unicode="^" horiz-adv-x="2207" d="M457 971l579 600h129l582 -600h-133l-510 506l-512 -506h-135z" />
<glyph unicode="_" horiz-adv-x="1103" d="M0 -434h1104v-86h-1104v86z" />
<glyph unicode="`" horiz-adv-x="1103" d="M297 1516h164l225 -375h-98z" />
<glyph unicode="a" horiz-adv-x="1318" d="M59 500q0 231 140.5 376.5t357.5 145.5q260 0 428 -215v188h275v-102h-162v-791h162v-102h-275v211q-158 -236 -422 -236q-211 0 -356 150q-148 158 -148 375zM176 502q0 -178 118 -299t283.5 -121t285.5 122t120 298q0 178 -120 299t-294 121q-172 0 -282.5 -117 t-110.5 -303z" />
<glyph unicode="b" horiz-adv-x="1318" d="M49 0v102h162v1385h-162v102h275v-782q168 215 428 215q217 0 357 -145.5t140 -376.5q0 -217 -147 -375q-145 -150 -357 -150q-264 0 -421 236v-211h-275zM326 502q0 -176 121.5 -299t289.5 -123q166 0 281 122t115 300q0 190 -111 305t-291 115q-166 0 -285.5 -121 t-119.5 -299z" />
<glyph unicode="c" horiz-adv-x="1173" d="M74 500q0 231 147 374q152 147 365 148q217 0 344 -143l-2 116h100v-333h-100q-35 123 -125 191.5t-217 68.5q-172 0 -285 -118t-113 -304q0 -184 116 -304t290 -120q205 0 369 188l69 -67q-186 -223 -438 -224q-233 0 -376.5 145.5t-143.5 381.5z" />
<glyph unicode="d" horiz-adv-x="1316" d="M74 500q0 231 139 376.5t356 145.5q260 0 428 -215v680h-163v102h276v-1487h162v-102h-275v211q-158 -236 -422 -236q-211 0 -354 150q-147 154 -147 375zM188 502q0 -178 119 -299t285 -121q164 0 282.5 122t118.5 298q0 180 -118.5 300t-294.5 120q-172 0 -282 -117 t-110 -303z" />
<glyph unicode="e" horiz-adv-x="1230" d="M70 495.5q0 223.5 155.5 375t390.5 151.5q246 0 393.5 -149.5t149.5 -407.5h-969q8 -174 129 -282.5t297 -108.5q258 0 377 215h125q-160 -315 -502 -316q-236 0 -391 149.5t-155 373zM190 559h852q-29 172 -140 267.5t-286 95.5q-166 0 -282.5 -99.5t-143.5 -263.5z" />
<glyph unicode="f" horiz-adv-x="606" d="M47 0v102h178v791h-178v102h178v301q0 158 61.5 225.5t209.5 67.5q45 0 96 -6v-98q-49 6 -88 6q-96 0 -131 -44t-35 -159v-293h194v-102h-194v-791h194v-102h-485z" />
<glyph unicode="g" horiz-adv-x="1318" d="M74 500q0 231 139 376.5t356 145.5q260 0 428 -215v188h275v-102h-162v-666q0 -121 -3 -186.5t-19.5 -144t-51.5 -134.5q-59 -102 -173.5 -161.5t-252.5 -59.5q-350 0 -479 260h125q94 -162 336 -161q215 0 311 118.5t96 372.5q0 51 -2 80q-158 -236 -422 -236 q-211 0 -354 150q-147 154 -147 375zM188 502q0 -178 119 -299t285 -121q164 0 282.5 122t118.5 298q0 180 -118.5 300t-294.5 120q-172 0 -282 -117t-110 -303z" />
<glyph unicode="h" horiz-adv-x="1255" d="M59 0v102h164v1385h-164v102h277v-782q188 215 414 215q164 0 232.5 -85t68.5 -273v-562h163v-102h-438v102h162v562q0 133 -48 194.5t-159 61.5q-207 0 -395 -248v-570h166v-102h-443z" />
<glyph unicode="i" horiz-adv-x="550" d="M35 0v102h188v791h-176v102h289v-893h168v-102h-469zM217 1198v258h115v-258h-115z" />
<glyph unicode="j" horiz-adv-x="505" d="M6 -360q135 43 176 126.5t41 266.5v860h-176v102h289v-966q0 -223 -69.5 -334t-260.5 -154v99zM217 1198v258h115v-258h-115z" />
<glyph unicode="k" horiz-adv-x="1138" d="M35 0v102h188v1385h-176v102h289v-1011l391 315h-166v102h481v-102h-161l-430 -342l489 -449h164v-102h-457v102h141l-452 412v-412h160v-102h-461z" />
<glyph unicode="l" horiz-adv-x="550" d="M35 0v102h188v1385h-176v102h289v-1487h168v-102h-469z" />
<glyph unicode="m" horiz-adv-x="1898" d="M59 0v102h164v791h-164v102h277v-188q98 113 186 164t197 51q217 0 280 -176q174 176 387 176q164 0 232 -85t68 -273v-562h163v-102h-436v102h160v562q0 133 -48 194.5t-159 61.5q-195 0 -348 -187v-631h164v-102h-439v102h162v562q0 131 -46 194.5t-148 63.5 q-184 0 -375 -250v-570h166v-102h-443z" />
<glyph unicode="n" horiz-adv-x="1261" d="M59 0v102h164v791h-164v102h277v-188q188 215 414 215q164 0 232.5 -85t68.5 -273v-562h163v-102h-438v102h162v562q0 133 -48 194.5t-159 61.5q-207 0 -395 -248v-570h166v-102h-443z" />
<glyph unicode="o" horiz-adv-x="1230" d="M70 495.5q0 223.5 155.5 375t391 151.5t389 -150.5t153.5 -375.5q0 -223 -153.5 -373t-389 -150t-391 149.5t-155.5 373zM188 499.5q0 -184.5 122 -305t306 -120.5q182 0 306.5 120.5t124.5 305.5q0 182 -123 302t-307.5 120t-306.5 -119t-122 -303.5z" />
<glyph unicode="p" horiz-adv-x="1331" d="M59 -358h162v1251h-162v102h275v-188q168 215 430 215q217 0 356.5 -145.5t139.5 -376.5q0 -217 -148 -375q-143 -150 -356 -150q-268 0 -422 236v-569h172v-101h-447v101zM338 502q0 -178 120 -300t292 -122q166 0 279.5 122t113.5 300q0 190 -111.5 305t-292.5 115 q-166 0 -283.5 -121t-117.5 -299z" />
<glyph unicode="q" horiz-adv-x="1331" d="M70 500q0 231 140 376.5t357 145.5q262 0 430 -215v188h275v-102h-162v-1251h162v-101h-447v101h172v569q-158 -236 -422 -236q-213 0 -356 150q-149 156 -149 375zM188 502q0 -178 119 -299t285 -121q164 0 282.5 122t118.5 298q0 178 -117.5 299t-283.5 121 q-182 0 -293 -115t-111 -305z" />
<glyph unicode="r" horiz-adv-x="831" d="M59 0v102h164v791h-164v102h277v-135q104 164 250 164q199 0 209 -215h-93q-12 117 -122 117q-244 0 -244 -480v-344h166v-102h-443z" />
<glyph unicode="s" horiz-adv-x="1060" d="M137 752q0 121 96.5 196.5t255.5 75.5q221 0 310 -139l-2 110h102v-288h-102q-23 106 -105 165.5t-207 59.5q-109 0 -172 -47t-63 -121q0 -76 54 -111t185 -59l140 -27q328 -61 327 -288q0 -129 -98 -210t-262 -81q-213 0 -356 145l4 -133h-105v352h105 q29 -127 123 -197.5t229 -70.5q106 0 177 54.5t71 134t-57.5 122.5t-182.5 68l-129 26q-180 37 -259 93.5t-79 169.5z" />
<glyph unicode="t" horiz-adv-x="614" d="M31 893v102h170v394h110v-394h193v-102h-193v-612v-17q0 -111 18.5 -143.5t102.5 -32.5q59 0 98 6v-96q-72 -6 -110 -6q-82 0 -125 9t-64.5 44t-25.5 74t-4 125v649h-170z" />
<glyph unicode="u" horiz-adv-x="1251" d="M41 893v102h276v-663q0 -133 48.5 -194.5t158.5 -61.5q207 0 396 248v569h-164v102h276v-893h164v-102h-276v190q-188 -217 -414 -217q-164 0 -232.5 85t-68.5 274v561h-164z" />
<glyph unicode="v" horiz-adv-x="1017" d="M-53 893v102h440v-102h-176l301 -772l289 772h-174v102h438v-102h-150l-356 -920h-86l-377 920h-149z" />
<glyph unicode="w" horiz-adv-x="1624" d="M-6 893v102h428v-102h-176l258 -746l223 746h-154v102h486v-102h-166l219 -746l262 746h-164v102h430v-102h-161l-326 -920h-84l-262 858l-262 -858h-84l-322 920h-145z" />
<glyph unicode="x" horiz-adv-x="1089" d="M16 0v102h154l319 408l-299 383h-145v102h416v-102h-142l234 -301l238 301h-146v102h434v-102h-164l-299 -381l299 -410h164v-102h-434v102h141l-235 326l-258 -326h149v-102h-426z" />
<glyph unicode="y" horiz-adv-x="1056" d="M-25 893v102h390v-102h-146l301 -692l309 692h-155v102h399v-102h-129l-563 -1251h168v-101h-445v101h162l199 446l-367 805h-123z" />
<glyph unicode="z" horiz-adv-x="1048" d="M96 0v102l672 791h-549v-170h-104v272h803v-77l-691 -816h598v185h103v-287h-832z" />
<glyph unicode="{" horiz-adv-x="1103" d="M190 522v99q18 -2 54 -3q152 0 212 71t60 239v258q0 233 68.5 319t281.5 86h47v-94h-39q-154 0 -200.5 -59.5t-46.5 -225.5v-262q0 -174 -42 -258t-167 -121q127 -39 168 -121.5t41 -256.5v-261q0 -166 47 -224t198 -58h41v-96h-47q-213 0 -281.5 86t-68.5 319v258 q0 168 -61.5 237.5t-216.5 69.5q-6 0 -23 -1t-25 -1z" />
<glyph unicode="|" horiz-adv-x="1103" d="M504 -520v2206h96v-2206h-96z" />
<glyph unicode="}" horiz-adv-x="1103" d="M190 -350h41q152 0 199 58.5t47 223.5v261q0 174 42 256.5t169 121.5q-127 37 -169 121t-42 258v262q0 166 -48 225.5t-200 59.5h-39v94h46q215 0 283.5 -86t68.5 -319v-258q0 -170 61.5 -240t214.5 -70q8 0 23.5 1.5t25.5 1.5v-99q-8 0 -24.5 1t-24.5 1 q-154 0 -215 -69.5t-61 -237.5v-258q0 -233 -68.5 -319t-283.5 -86h-46v96z" />
<glyph unicode="~" horiz-adv-x="1839" d="M193 518v100q227 158 415 158q102 0 312 -74q209 -78 311 -77q172 0 418 172v-99q-225 -160 -418 -159q-29 0 -59 4l-50 7q-20 3 -55 13t-48 16l-52 19q-39 14 -47 16q-215 76 -312 76q-173 0 -415 -172z" />
<glyph unicode="&#xa8;" horiz-adv-x="1103" d="M303 1225v174h152v-174h-152zM649 1225v174h152v-174h-152z" />
<glyph unicode="&#xa9;" horiz-adv-x="1839" d="M133 776q0 324 234 561q223 227 551 228q330 0 561 -232q227 -227 227 -557q0 -328 -227 -551q-240 -236 -561 -235q-319 0 -553 233q-232 231 -232 553zM209 776q0 -287 211 -497q207 -211 498 -211q289 0 505 213q205 199 205 495.5t-205 501.5q-209 209 -505.5 209 t-495.5 -205q-213 -217 -213 -506zM508 780q0 223 115.5 355.5t304.5 132.5q141 0 238.5 -78t111.5 -201h-113q-23 88 -86 136.5t-159 48.5q-135 0 -211 -104.5t-76 -295.5q0 -182 77.5 -287.5t209.5 -105.5q98 0 167.5 56.5t90.5 152.5h110q-10 -131 -115.5 -216 t-259.5 -85q-184 0 -294.5 132t-110.5 359z" />
<glyph unicode="&#xab;" horiz-adv-x="1017" d="M141 496l279 338h145l-278 -338l278 -334h-145zM473 496l277 338h147l-279 -338l279 -334h-147z" />
<glyph unicode="&#xad;" horiz-adv-x="684" d="M74 453v110h540v-110h-540z" />
<glyph unicode="&#xae;" horiz-adv-x="1839" d="M133 776q0 324 234 561q223 227 551 228q330 0 561 -232q227 -227 227 -557q0 -328 -227 -551q-240 -236 -561 -235q-319 0 -553 233q-232 231 -232 553zM209 776q0 -287 211 -497q207 -211 498 -211q289 0 505 213q205 199 205 495.5t-205 501.5q-209 209 -505.5 209 t-495.5 -205q-213 -217 -213 -506zM614 334v911h328q190 0 282.5 -60.5t92.5 -191.5q0 -96 -59.5 -160.5t-157.5 -74.5l205 -424h-142l-196 405h-230v-405h-123zM737 823h181q150 0 212 37t62 137q0 164 -274 164h-181v-338z" />
<glyph unicode="&#xb0;" horiz-adv-x="727" d="M68 1268q0 123 87 209t210 86q121 0 206.5 -87t85.5 -208q0 -123 -86 -209t-209 -86q-125 0 -209.5 86t-84.5 209zM135 1267.5q0 -96.5 66.5 -164t163.5 -67.5q94 0 161.5 67.5t67.5 164.5q0 94 -67.5 161.5t-161.5 67.5q-96 0 -163 -66.5t-67 -163z" />
<glyph unicode="&#xb4;" horiz-adv-x="1230" d="M481 1118l181 338h163l-245 -338h-99z" />
<glyph unicode="&#xb8;" horiz-adv-x="1173" d="M362 -369q158 -37 256 -37q141 0 142 97q0 113 -158 112q-33 0 -51 -2v199h72v-119h14q117 0 179.5 -48t62.5 -138q0 -188 -244 -189q-121 0 -273 43v82z" />
<glyph unicode="&#xbb;" horiz-adv-x="1017" d="M121 162l276 334l-276 338h143l279 -338l-279 -334h-143zM453 162l278 334l-278 338h145l279 -338l-279 -334h-145z" />
<glyph unicode="&#xd3;" horiz-adv-x="1783" d="M82 795q0 377 270 624q219 201 538.5 201t539.5 -201q272 -250 272 -624.5t-272 -622.5q-221 -203 -539 -203t-539 203q-270 248 -270 623zM211 795q0 -324 215 -533q88 -86 211 -134t254 -48q279 0 467 182q213 209 213 533q0 328 -213 534q-188 182 -467 182 q-276 0 -465 -182q-215 -208 -215 -534zM801 1716l182 338h162l-244 -338h-100z" />
<glyph unicode="&#xf3;" horiz-adv-x="1230" d="M70 495.5q0 223.5 155.5 375t391 151.5t389 -150.5t153.5 -375.5q0 -223 -153.5 -373t-389 -150t-391 149.5t-155.5 373zM188 499.5q0 -184.5 122 -305t306 -120.5q182 0 306.5 120.5t124.5 305.5q0 182 -123 302t-307.5 120t-306.5 -119t-122 -303.5zM520 1118l182 338 h162l-243 -338h-101z" />
<glyph unicode="&#x104;" horiz-adv-x="1460" d="M-39 0v109h154l503 1372h-161v108h547v-108h-160l502 -1372h155v-109h-145q-43 0 -100.5 -95t-57.5 -157q0 -51 27.5 -71.5t91.5 -20.5h82v-102h-80q-227 0 -227 174q0 143 127 272h-185v109h183l-142 387h-688l-141 -387h180v-109h-465zM428 602h604l-301 844z" />
<glyph unicode="&#x105;" horiz-adv-x="1318" d="M59 500q0 231 140.5 376.5t357.5 145.5q260 0 428 -215v188h275v-102h-162v-791h162v-102h-43q-43 0 -100.5 -95t-57.5 -157q0 -51 27.5 -71.5t91.5 -20.5h82v-102h-78q-227 0 -228 174q0 145 125 272h-94v211q-158 -236 -422 -236q-211 0 -356 150q-148 158 -148 375z M176 502q0 -178 118 -299t283.5 -121t285.5 122t120 298q0 178 -120 299t-294 121q-172 0 -282.5 -117t-110.5 -303z" />
<glyph unicode="&#x106;" horiz-adv-x="1640" d="M82 795q0 377 270 624q219 201 539 201q383 0 565 -285v254h111v-495h-99q-55 199 -206.5 308t-370.5 109q-131 0 -253 -48t-212 -134q-215 -209 -215 -534q0 -317 197.5 -517t506.5 -200q213 0 360.5 112.5t197.5 311.5h112q-66 -256 -246 -394.5t-448 -138.5 q-317 0 -539 203q-270 248 -270 623zM801 1716l182 338h162l-244 -338h-100z" />
<glyph unicode="&#x107;" horiz-adv-x="1173" d="M74 500q0 231 147 374q152 147 365 148q217 0 344 -143l-2 116h100v-333h-100q-35 123 -125 191.5t-217 68.5q-172 0 -285 -118t-113 -304q0 -184 116 -304t290 -120q205 0 369 188l69 -67q-186 -223 -438 -224q-233 0 -376.5 145.5t-143.5 381.5zM518 1118l182 338h162 l-244 -338h-100z" />
<glyph unicode="&#x118;" horiz-adv-x="1302" d="M63 0v109h185v1372h-185v108h1164v-391h-127v283h-725v-584h557v-109h-557v-679h725v276h127v-385h-219q-43 0 -99.5 -95t-56.5 -157q0 -51 27.5 -71.5t91.5 -20.5h82v-102h-80q-227 0 -228 174q0 143 127 272h-809z" />
<glyph unicode="&#x119;" horiz-adv-x="1230" d="M70 495.5q0 223.5 155.5 375t390.5 151.5q246 0 393.5 -149.5t149.5 -407.5h-969q8 -174 129 -282.5t297 -108.5q258 0 377 215h125q-115 -227 -332 -293q-45 -14 -97 -102.5t-52 -145.5q0 -49 28.5 -70.5t92.5 -21.5h80v-102h-78q-227 0 -228 174q0 121 101 245h-17 q-236 0 -391 149.5t-155 373zM190 559h852q-29 172 -140 267.5t-286 95.5q-166 0 -282.5 -99.5t-143.5 -263.5z" />
<glyph unicode="&#x141;" horiz-adv-x="1171" d="M68 0v109h186v659l-186 -129v119l186 129v594h-186v108h497v-108h-186v-533l442 307v-116l-442 -310v-720h649v229h129v-338h-1089z" />
<glyph unicode="&#x142;" horiz-adv-x="571" d="M45 0v102h188v764l-188 -131v113l188 135v504h-178v102h289v-530l184 131v-115l-184 -131v-842h170v-102h-469z" />
<glyph unicode="&#x143;" horiz-adv-x="1585" d="M63 0v109h185v1372h-185v108h379l764 -1380v1272h-166v108h478v-108h-183v-1512h-129l-831 1481v-1341h170v-109h-482zM731 1716l180 338h164l-246 -338h-98z" />
<glyph unicode="&#x144;" horiz-adv-x="1261" d="M59 0v102h164v791h-164v102h277v-188q188 215 414 215q164 0 232.5 -85t68.5 -273v-562h163v-102h-438v102h162v562q0 133 -48 194.5t-159 61.5q-207 0 -395 -248v-570h166v-102h-443zM492 1118l182 338h162l-244 -338h-100z" />
<glyph unicode="&#x15a;" horiz-adv-x="1460" d="M207 -4v528h106q29 -209 168.5 -329.5t347.5 -120.5q168 0 272.5 88t104.5 229q0 117 -75.5 188.5t-241.5 114.5l-207 56q-233 63 -353 177.5t-120 272.5q0 178 136 297t345 119q143 0 261 -61.5t184 -172.5l-7 203h105v-424h-98q-43 166 -163 256t-292 90 q-150 0 -250 -82t-100 -204q0 -127 92 -211t283 -133l243 -64q379 -102 379 -412q0 -193 -141.5 -314.5t-376.5 -121.5q-154 0 -284 73t-218 208l6 -250h-106zM602 1716l182 338h162l-244 -338h-100z" />
<glyph unicode="&#x15b;" horiz-adv-x="1060" d="M137 752q0 121 96.5 196.5t255.5 75.5q221 0 310 -139l-2 110h102v-288h-102q-23 106 -105 165.5t-207 59.5q-109 0 -172 -47t-63 -121q0 -76 54 -111t185 -59l140 -27q328 -61 327 -288q0 -129 -98 -210t-262 -81q-213 0 -356 145l4 -133h-105v352h105 q29 -127 123 -197.5t229 -70.5q106 0 177 54.5t71 134t-57.5 122.5t-182.5 68l-129 26q-180 37 -259 93.5t-79 169.5zM416 1118l180 338h164l-246 -338h-98z" />
<glyph unicode="&#x179;" horiz-adv-x="1429" d="M178 0v109l922 1372h-803v-310h-119v418h1063v-108l-922 -1372h801v311h121v-420h-1063zM582 1716l182 338h164l-246 -338h-100z" />
<glyph unicode="&#x17a;" horiz-adv-x="1048" d="M96 0v102l672 791h-549v-170h-104v272h803v-77l-691 -816h598v185h103v-287h-832zM389 1118l180 338h164l-246 -338h-98z" />
<glyph unicode="&#x17b;" horiz-adv-x="1429" d="M178 0v109l922 1372h-803v-310h-119v418h1063v-108l-922 -1372h801v311h121v-420h-1063zM666 1776v260h114v-260h-114z" />
<glyph unicode="&#x17c;" horiz-adv-x="1048" d="M96 0v102l672 791h-549v-170h-104v272h803v-77l-691 -816h598v185h103v-287h-832zM471 1198v258h115v-258h-115z" />
<glyph unicode="&#x2c6;" horiz-adv-x="2207" d="M457 971l579 600h129l582 -600h-133l-510 506l-512 -506h-135z" />
<glyph unicode="&#x2da;" horiz-adv-x="565" d="M-294 418q0 123 87 209t210 86q121 0 206.5 -87t85.5 -208q0 -123 -86 -209t-209 -86q-125 0 -209.5 86t-84.5 209zM-227 417.5q0 -96.5 66.5 -164t163.5 -67.5q94 0 161.5 67.5t67.5 164.5q0 94 -67.5 161.5t-161.5 67.5q-96 0 -163 -66.5t-67 -163z" />
<glyph unicode="&#x2dc;" horiz-adv-x="565" d="M-729 123v100q227 158 415 158q102 0 312 -74q209 -78 311 -77q172 0 418 172v-99q-225 -160 -418 -159q-29 0 -59 4l-50 7q-20 3 -55 13t-48 16l-52 19q-39 14 -47 16q-215 76 -312 76q-173 0 -415 -172z" />
<glyph unicode="&#x2000;" horiz-adv-x="1026" />
<glyph unicode="&#x2001;" horiz-adv-x="2054" />
<glyph unicode="&#x2002;" horiz-adv-x="1026" />
<glyph unicode="&#x2003;" horiz-adv-x="2054" />
<glyph unicode="&#x2004;" horiz-adv-x="684" />
<glyph unicode="&#x2005;" horiz-adv-x="512" />
<glyph unicode="&#x2006;" horiz-adv-x="342" />
<glyph unicode="&#x2007;" horiz-adv-x="342" />
<glyph unicode="&#x2008;" horiz-adv-x="256" />
<glyph unicode="&#x2009;" horiz-adv-x="409" />
<glyph unicode="&#x200a;" horiz-adv-x="112" />
<glyph unicode="&#x2010;" horiz-adv-x="684" d="M74 453v110h540v-110h-540z" />
<glyph unicode="&#x2011;" horiz-adv-x="684" d="M74 453v110h540v-110h-540z" />
<glyph unicode="&#x2012;" horiz-adv-x="684" d="M74 453v110h540v-110h-540z" />
<glyph unicode="&#x2013;" horiz-adv-x="1103" d="M0 471v76h1104v-76h-1104z" />
<glyph unicode="&#x2014;" horiz-adv-x="2207" d="M0 471v76h2208v-76h-2208z" />
<glyph unicode="&#x2018;" horiz-adv-x="552" d="M150 1151l133 438h123l-132 -438h-124z" />
<glyph unicode="&#x2019;" horiz-adv-x="552" d="M150 1151l133 438h123l-132 -438h-124z" />
<glyph unicode="&#x201a;" horiz-adv-x="552" d="M150 -203l133 436h123l-132 -436h-124z" />
<glyph unicode="&#x201c;" horiz-adv-x="976" d="M150 1151l133 438h123l-132 -438h-124zM573 1151l134 438h124l-133 -438h-125z" />
<glyph unicode="&#x201d;" horiz-adv-x="976" d="M150 1151l133 438h123l-132 -438h-124zM573 1151l134 438h124l-133 -438h-125z" />
<glyph unicode="&#x201e;" horiz-adv-x="976" d="M150 -203l133 436h123l-132 -436h-124zM573 -203l134 436h124l-133 -436h-125z" />
<glyph unicode="&#x2026;" horiz-adv-x="2207" d="M252 88q0 49 33.5 83t83.5 34q51 0 83.5 -34t32.5 -83t-33.5 -82t-83 -33t-83 33t-33.5 82zM987 88q0 49 33 83t84 34t84 -34t33 -83t-34 -82t-83 -33q-51 0 -84 33t-33 82zM1724 88q0 49 33 83t84 34t84 -34t33 -83t-34 -82t-83 -33q-51 0 -84 33t-33 82z" />
<glyph unicode="&#x202f;" horiz-adv-x="409" />
<glyph unicode="&#x2039;" horiz-adv-x="684" d="M141 496l279 338h145l-278 -338l278 -334h-145z" />
<glyph unicode="&#x203a;" horiz-adv-x="684" d="M121 162l276 334l-276 338h143l279 -338l-279 -334h-143z" />
<glyph unicode="&#x205f;" horiz-adv-x="512" />
<glyph unicode="&#x2122;" horiz-adv-x="1839" d="M295 1511v56h453v-56h-187v-516h-74v516h-192zM889 995v572h108l189 -475l174 475h110v-572h-65v516l-193 -516h-53l-205 516v-516h-65z" />
<glyph unicode="&#xe000;" horiz-adv-x="995" d="M0 995h995v-995h-995v995z" />
</font>
</defs>
</svg>
